<svg width="34" height="34" viewBox="0 0 34 34" fill="none" xmlns="http://www.w3.org/2000/svg">
  <g clip-path="url(#clip0_12_138)">
    <path d="M28.6662 8.05501C29.2782 6.36209 27.6377 4.72159 25.9448 5.33501L5.25439 12.8178C3.55581 13.4327 3.35039 15.7503 4.91298 16.6556L11.5175 20.4792L17.4151 14.5816C17.6822 14.3235 18.0401 14.1807 18.4115 14.184C18.783 14.1872 19.1383 14.3362 19.401 14.5988C19.6636 14.8615 19.8126 15.2168 19.8158 15.5883C19.8191 15.9597 19.6763 16.3176 19.4182 16.5848L13.5206 22.4823L17.3456 29.0868C18.2495 30.6494 20.5671 30.4426 21.182 28.7454L28.6662 8.05501Z" fill="#467DFC"/>
  </g>
  <defs>
    <clipPath id="clip0_12_138">
      <rect width="34" height="34" fill="white"/>
    </clipPath>
  </defs>
</svg>