<svg width="25" height="22" viewBox="0 0 25 22" fill="none" xmlns="http://www.w3.org/2000/svg">
<path id="Vector" d="M24.083 17.2711C24.7127 16.0574 25.0266 14.7183 24.9982 13.3659C24.9699 12.0135 24.6003 10.6873 23.9202 9.49821C23.2402 8.30914 22.2696 7.29188 21.0897 6.53162C19.9097 5.77136 18.5549 5.29023 17.1385 5.12852C16.6688 4.09028 15.9847 3.15167 15.1265 2.36801C14.2682 1.58435 13.2533 0.971478 12.1414 0.565508C11.0295 0.159538 9.84312 -0.031319 8.65222 0.0041811C7.46132 0.0396812 6.28996 0.30082 5.20714 0.772213C4.12433 1.24361 3.15197 1.91572 2.34736 2.74895C1.54274 3.58218 0.922147 4.55968 0.522132 5.62385C0.122117 6.68801 -0.0492252 7.81733 0.0182009 8.94526C0.085627 10.0732 0.390457 11.1769 0.914732 12.1914L0.0597899 15.0297C-0.0165006 15.2836 -0.0198426 15.5523 0.0501093 15.8078C0.120061 16.0634 0.260766 16.2966 0.457663 16.4833C0.654559 16.6699 0.900495 16.8034 1.17002 16.8697C1.43954 16.936 1.72287 16.9328 1.99066 16.8605L4.98408 16.0499C5.88736 16.4704 6.85899 16.7434 7.85807 16.8573C8.33431 17.9153 9.03293 18.8701 9.91129 19.6636C10.7896 20.457 11.8293 21.0724 12.9668 21.4722C14.1044 21.872 15.3159 22.0478 16.5275 21.9889C17.739 21.93 18.9252 21.6376 20.0137 21.1296L23.0071 21.9402C23.2749 22.0125 23.5582 22.0157 23.8277 21.9494C24.0972 21.8831 24.3432 21.7496 24.5401 21.563C24.737 21.3763 24.8777 21.1431 24.9476 20.8875C25.0176 20.632 25.0142 20.3633 24.9379 20.1094L24.083 17.2711ZM5.08006 14.2974C4.99708 14.2974 4.91448 14.3081 4.83452 14.3291L1.88687 15.1281L2.72953 12.3332C2.79268 12.1203 2.76544 11.8924 2.65364 11.6983C1.83264 10.2691 1.58228 8.60729 1.94843 7.01734C2.31458 5.42738 3.27272 4.01578 4.64727 3.04118C6.02183 2.06659 7.72075 1.59428 9.43271 1.7108C11.1447 1.82732 12.755 2.52487 13.9687 3.67562C15.1823 4.82638 15.918 6.35327 16.0409 7.97651C16.1638 9.59975 15.6657 11.2106 14.6378 12.5139C13.6099 13.8173 12.1212 14.7257 10.4443 15.0729C8.76745 15.4201 7.01481 15.1827 5.50754 14.4043C5.37686 14.335 5.22979 14.2982 5.08006 14.2974ZM22.2682 17.4129L23.1109 20.2078L20.1632 19.4088C19.9386 19.3489 19.6983 19.3748 19.4935 19.4808C17.8476 20.3298 15.9159 20.5323 14.1141 20.0447C12.3124 19.557 10.7845 18.4182 9.85926 16.8732C11.0819 16.7525 12.265 16.3935 13.3344 15.8187C14.4039 15.2439 15.3364 14.4658 16.0737 13.5331C16.8109 12.6005 17.337 11.5334 17.6187 10.3989C17.9005 9.26436 17.932 8.08687 17.7111 6.94028C18.781 7.17936 19.7783 7.64935 20.6254 8.31366C21.4724 8.97797 22.1463 9.81868 22.5946 10.7703C23.0429 11.722 23.2536 12.7589 23.2101 13.8003C23.1667 14.8418 22.8703 15.8597 22.3441 16.7748C22.2314 16.9698 22.2041 17.199 22.2682 17.4129Z" fill="#467DFC"/>
</svg>
