<svg width="25" height="15" viewBox="0 0 25 15" fill="none" xmlns="http://www.w3.org/2000/svg">
<path id="Vector" d="M6.66667 0C3.91667 0 1.66667 2.25 1.66667 5C1.66667 6.65333 2.48083 8.125 3.72417 9.03667C1.52667 10.1267 0 12.3867 0 15H1.66667C1.66667 12.23 3.89667 10 6.66667 10C9.43667 10 11.6667 12.23 11.6667 15H13.3333C13.3333 12.23 15.5633 10 18.3333 10C21.1033 10 23.3333 12.23 23.3333 15H25C25 12.3858 23.4733 10.1267 21.2758 9.03667C21.9121 8.57305 22.43 7.96588 22.7875 7.26448C23.145 6.56309 23.332 5.78725 23.3333 5C23.3333 2.25 21.0833 0 18.3333 0C15.5833 0 13.3333 2.25 13.3333 5C13.3333 6.65333 14.1475 8.125 15.3908 9.03667C14.1733 9.63529 13.1655 10.5885 12.5 11.7708C11.8345 10.5885 10.8267 9.63529 9.60917 9.03667C10.2454 8.57305 10.7633 7.96588 11.1208 7.26448C11.4783 6.56309 11.6653 5.78725 11.6667 5C11.6667 2.25 9.41667 0 6.66667 0ZM6.66667 1.66667C8.51917 1.66667 10 3.1475 10 5C10 6.8525 8.51917 8.33333 6.66667 8.33333C4.81417 8.33333 3.33333 6.8525 3.33333 5C3.33333 3.1475 4.81417 1.66667 6.66667 1.66667ZM18.3333 1.66667C20.1858 1.66667 21.6667 3.1475 21.6667 5C21.6667 6.8525 20.1858 8.33333 18.3333 8.33333C16.4808 8.33333 15 6.8525 15 5C15 3.1475 16.4808 1.66667 18.3333 1.66667Z" fill="white"/>
</svg>
