<svg width="21" height="22" viewBox="0 0 21 22" fill="none" xmlns="http://www.w3.org/2000/svg">
  <path d="M2.36071 2.83333H9.44283C10.092 2.83333 10.6232 2.30833 10.6232 1.66667C10.6232 1.025 10.092 0.5 9.44283 0.5H2.36071C1.06232 0.5 0 1.55 0 2.83333V19.1667C0 20.45 1.06232 21.5 2.36071 21.5H9.44283C10.092 21.5 10.6232 20.975 10.6232 20.3333C10.6232 19.6917 10.092 19.1667 9.44283 19.1667H2.36071V2.83333Z" fill="white"/>
  <path d="M20.8332 10.5917L17.5401 7.33667C17.458 7.25331 17.3526 7.19606 17.2374 7.17225C17.1222 7.14843 17.0024 7.15913 16.8934 7.20298C16.7844 7.24683 16.6911 7.32184 16.6255 7.41839C16.5598 7.51495 16.5248 7.62867 16.525 7.745V9.83333H8.26248C7.61328 9.83333 7.08212 10.3583 7.08212 11C7.08212 11.6417 7.61328 12.1667 8.26248 12.1667H16.525V14.255C16.525 14.78 17.1623 15.0367 17.5283 14.6633L20.8214 11.4083C21.0575 11.1867 21.0575 10.8133 20.8332 10.5917Z" fill="white"/>
</svg>