<svg width="65" height="65" viewBox="0 0 65 65" fill="none" xmlns="http://www.w3.org/2000/svg">
<path id="Logo" d="M9.05395 64.5198C6.57489 65.1601 4.41919 65.1601 2.58684 64.5198C0.862281 63.7879 0 62.5073 0 60.6777C0 60.0374 0.269463 59.4886 0.808388 59.0312C1.34731 58.5738 2.10181 58.2079 3.07188 57.9335C4.14973 57.659 5.17368 57.4303 6.14375 57.2474C7.11382 57.0644 8.19167 56.8815 9.3773 56.6985C10.6707 56.5156 11.6408 56.3784 12.2875 56.2869C18.7546 54.8233 24.9522 51.9875 30.8804 47.7796C36.8086 43.5717 41.6589 38.8149 45.4314 33.5093C41.4434 32.8689 37.2397 33.0519 32.8206 34.0581C28.5092 34.9729 24.0361 36.2078 19.4013 37.7629C14.7666 39.318 10.8324 40.1871 7.59885 40.37C5.65872 40.4615 4.09583 40.0041 2.9102 38.9979C1.72456 37.9001 1.13174 36.5737 1.13174 35.0186C1.13174 31.3596 2.9102 26.2405 9.3773 21.6667C9.3773 21.6667 20.6014 13.53 28.5362 9.70149C36.4709 5.87293 45.4314 4.20398 45.4314 4.20398L36.8925 1.29353L65 0L45.4314 17.4627L47.479 8.40795C36.2661 13.3005 19.6475 23.7336 13.5809 30.3534C15.1977 30.5363 20.6947 29.896 30.072 28.4324C39.5571 26.8773 45.0542 26.1912 46.5632 26.3741C48.1799 26.4656 49.3656 26.5571 50.1201 26.6486C50.8746 26.74 51.7368 26.923 52.7069 27.1974C53.677 27.4719 54.3237 27.8835 54.647 28.4324C55.0782 28.9812 55.3476 29.7588 55.4554 30.765C55.4554 32.2286 54.647 34.2411 53.0303 36.8024C49.0422 43.0228 43.0601 48.6029 35.084 53.5426C27.2157 58.3908 18.539 62.0499 9.05395 64.5198Z" fill="#467DFC"/>
</svg>
