<svg width="23" height="23" viewBox="0 0 23 23" fill="none" xmlns="http://www.w3.org/2000/svg">
<g id="Vector">
<path d="M11.5 16.1C12.72 16.1 13.89 15.6154 14.7527 14.7527C15.6154 13.89 16.1 12.72 16.1 11.5C16.1 10.28 15.6154 9.10998 14.7527 8.24731C13.89 7.38464 12.72 6.9 11.5 6.9V16.1Z" fill="white"/>
<path fill-rule="evenodd" clip-rule="evenodd" d="M11.5 0C5.14855 0 0 5.14855 0 11.5C0 17.8514 5.14855 23 11.5 23C17.8514 23 23 17.8514 23 11.5C23 5.14855 17.8514 0 11.5 0ZM11.5 2.3V6.9C10.28 6.9 9.10998 7.38464 8.24731 8.24731C7.38464 9.10998 6.9 10.28 6.9 11.5C6.9 12.72 7.38464 13.89 8.24731 14.7527C9.10998 15.6154 10.28 16.1 11.5 16.1V20.7C13.94 20.7 16.28 19.7307 18.0054 18.0054C19.7307 16.28 20.7 13.94 20.7 11.5C20.7 9.06001 19.7307 6.71995 18.0054 4.99462C16.28 3.26928 13.94 2.3 11.5 2.3Z" fill="white"/>
</g>
</svg>
