<svg width="30" height="30" viewBox="0 0 30 30" fill="none" xmlns="http://www.w3.org/2000/svg">
  <path d="M24.5 26.25L16.625 18.375C16 18.875 15.2812 19.2708 14.4688 19.5625C13.6562 19.8542 12.7917 20 11.875 20C9.60417 20 7.6825 19.2133 6.11 17.64C4.5375 16.0667 3.75083 14.145 3.75 11.875C3.75 9.60417 4.53667 7.6825 6.11 6.11C7.68333 4.5375 9.605 3.75083 11.875 3.75C14.1458 3.75 16.0679 4.53667 17.6412 6.11C19.2146 7.68333 20.0008 9.605 20 11.875C20 12.7917 19.8542 13.6562 19.5625 14.4688C19.2708 15.2812 18.875 16 18.375 16.625L26.25 24.5L24.5 26.25ZM11.875 17.5C13.4375 17.5 14.7658 16.9533 15.86 15.86C16.9542 14.7667 17.5008 13.4383 17.5 11.875C17.5 10.3125 16.9533 8.98458 15.86 7.89125C14.7667 6.79792 13.4383 6.25083 11.875 6.25C10.3125 6.25 8.98458 6.79708 7.89125 7.89125C6.79792 8.98542 6.25083 10.3133 6.25 11.875C6.25 13.4375 6.79708 14.7658 7.89125 15.86C8.98542 16.9542 10.3133 17.5008 11.875 17.5Z" fill="#BABABA"/>
</svg>