<svg width="21" height="23" viewBox="0 0 21 23" fill="none" xmlns="http://www.w3.org/2000/svg">
<g id="Vector">
<path fill-rule="evenodd" clip-rule="evenodd" d="M10.5 7.48837C9.47402 7.48837 8.49007 7.91102 7.76459 8.66335C7.03911 9.41568 6.63155 10.4361 6.63155 11.5C6.63155 12.5639 7.03911 13.5843 7.76459 14.3366C8.49007 15.089 9.47402 15.5116 10.5 15.5116C11.526 15.5116 12.5099 15.089 13.2354 14.3366C13.9609 13.5843 14.3685 12.5639 14.3685 11.5C14.3685 10.4361 13.9609 9.41568 13.2354 8.66335C12.5099 7.91102 11.526 7.48837 10.5 7.48837ZM8.17893 11.5C8.17893 10.8616 8.42347 10.2494 8.85875 9.79801C9.29404 9.34661 9.88441 9.09302 10.5 9.09302C11.1156 9.09302 11.706 9.34661 12.1412 9.79801C12.5765 10.2494 12.8211 10.8616 12.8211 11.5C12.8211 12.1384 12.5765 12.7506 12.1412 13.202C11.706 13.6534 11.1156 13.907 10.5 13.907C9.88441 13.907 9.29404 13.6534 8.85875 13.202C8.42347 12.7506 8.17893 12.1384 8.17893 11.5Z" fill="white"/>
<path fill-rule="evenodd" clip-rule="evenodd" d="M10.4742 0C10.0152 0 9.63243 -1.94731e-08 9.31883 0.0213953C8.99828 0.0352378 8.68214 0.103915 8.38318 0.224651C8.03889 0.372375 7.72603 0.588985 7.46248 0.862112C7.19892 1.13524 6.98983 1.45953 6.84715 1.81647C6.69757 2.19088 6.65734 2.5867 6.64083 3.01674C6.63918 3.17402 6.59903 3.32829 6.52415 3.46507C6.44927 3.60185 6.34211 3.71667 6.21272 3.79874C6.07952 3.87417 5.93003 3.91324 5.77827 3.91231C5.62652 3.91137 5.47748 3.87045 5.34516 3.7934C4.97791 3.59228 4.62717 3.43074 4.2393 3.37726C3.86993 3.32687 3.49461 3.35243 3.13477 3.45246C2.77493 3.5525 2.43761 3.72506 2.14208 3.96028C1.8922 4.16876 1.67716 4.4185 1.50559 4.69949C1.33022 4.97121 1.13834 5.31461 0.90933 5.72647L0.88354 5.77353C0.653496 6.1854 0.462652 6.52879 0.32442 6.82191C0.179997 7.12786 0.0665227 7.42953 0.0252592 7.7633C-0.073154 8.53673 0.128706 9.31903 0.586443 9.93814C0.82474 10.2601 1.13525 10.4944 1.48599 10.7233C1.61675 10.8035 1.7257 10.9169 1.80258 11.0527C1.87945 11.1886 1.92174 11.3425 1.92544 11.5C1.92174 11.6575 1.87945 11.8114 1.80258 11.9473C1.7257 12.0831 1.61675 12.1965 1.48599 12.2767C1.13525 12.5056 0.825771 12.7399 0.586443 13.0619C0.359614 13.3683 0.193216 13.7181 0.0967513 14.0913C0.000286205 14.4645 -0.0243573 14.8537 0.0242277 15.2367C0.0665228 15.5705 0.178966 15.8721 0.323388 16.1781C0.462652 16.4712 0.653496 16.8146 0.88354 17.2265L0.90933 17.2735C1.13834 17.6854 1.33022 18.0288 1.50559 18.3005C1.68818 18.5819 1.88418 18.8354 2.14208 19.0387C2.43753 19.2741 2.77482 19.4468 3.13466 19.547C3.4945 19.6473 3.86986 19.673 4.2393 19.6227C4.62717 19.5693 4.97791 19.4088 5.34516 19.2066C5.47732 19.1296 5.62618 19.0888 5.77776 19.0878C5.92933 19.0869 6.07865 19.1259 6.21169 19.2013C6.34179 19.2827 6.44963 19.3973 6.52493 19.5342C6.60022 19.6711 6.64048 19.8257 6.64186 19.9833C6.65734 20.4133 6.69757 20.8091 6.84818 21.1835C6.99063 21.5406 7.19951 21.865 7.46289 22.1383C7.72627 22.4116 8.03899 22.6285 8.38318 22.7764C8.68234 22.9048 8.99182 22.9551 9.31883 22.9775C9.63243 23 10.0152 23 10.4742 23H10.5258C10.9848 23 11.3676 23 11.6812 22.9786C12.0092 22.9551 12.3177 22.9048 12.6168 22.7754C12.9611 22.6276 13.274 22.411 13.5375 22.1379C13.8011 21.8648 14.0102 21.5405 14.1529 21.1835C14.3024 20.8091 14.3427 20.4133 14.3592 19.9833C14.3606 19.8258 14.4007 19.6713 14.4756 19.5343C14.5505 19.3973 14.6577 19.2824 14.7873 19.2002C14.9206 19.1249 15.0701 19.086 15.2219 19.0872C15.3736 19.0883 15.5226 19.1294 15.6548 19.2066C16.0221 19.4077 16.3728 19.5693 16.7607 19.6217C17.5065 19.7237 18.2609 19.5144 18.8579 19.0397C19.1158 18.8343 19.3118 18.5819 19.4944 18.3005C19.6698 18.0288 19.8617 17.6854 20.0907 17.2735L20.1165 17.2265C20.3465 16.8146 20.5373 16.4712 20.6756 16.1781C20.82 15.8721 20.9335 15.5694 20.9747 15.2367C21.0732 14.4633 20.8713 13.681 20.4136 13.0619C20.1753 12.7399 19.8648 12.5056 19.514 12.2767C19.3832 12.1965 19.2743 12.0831 19.1974 11.9473C19.1205 11.8114 19.0783 11.6575 19.0746 11.5C19.0746 11.2026 19.2314 10.9073 19.514 10.7233C19.8648 10.4944 20.1742 10.2601 20.4136 9.93814C20.6404 9.63167 20.8068 9.28187 20.9032 8.90871C20.9997 8.53555 21.0244 8.14634 20.9758 7.7633C20.9267 7.43457 20.8256 7.1165 20.6766 6.82191C20.5005 6.46647 20.3137 6.11685 20.1165 5.77353L20.0907 5.72647C19.9022 5.37782 19.7034 5.03532 19.4944 4.69949C19.3229 4.4188 19.1078 4.1694 18.8579 3.96135C18.5625 3.72594 18.2252 3.55319 17.8653 3.45297C17.5055 3.35275 17.1301 3.32702 16.7607 3.37726C16.3728 3.43074 16.0221 3.59121 15.6548 3.7934C15.5226 3.87026 15.3738 3.91108 15.2222 3.91201C15.0707 3.91295 14.9214 3.87398 14.7883 3.79874C14.6585 3.71693 14.551 3.60222 14.4757 3.46542C14.4005 3.32862 14.36 3.17422 14.3581 3.01674C14.3427 2.5867 14.3024 2.19088 14.1518 1.81647C14.0094 1.45943 13.8005 1.13499 13.5371 0.861683C13.2737 0.588373 12.961 0.371545 12.6168 0.223581C12.3177 0.0952093 12.0082 0.0449303 11.6812 0.0224651C11.3676 3.1157e-08 10.9848 0 10.5258 0H10.4742ZM8.97531 1.70628C9.05475 1.67205 9.17544 1.64102 9.42405 1.62284C9.67886 1.60465 10.009 1.60465 10.5 1.60465C10.991 1.60465 11.3211 1.60465 11.5759 1.62284C11.8246 1.64102 11.9453 1.67205 12.0247 1.70628C12.3414 1.84214 12.5921 2.10209 12.7231 2.43051C12.7643 2.53321 12.7984 2.69474 12.8118 3.07665C12.8427 3.92391 13.2647 4.74014 14.0136 5.18837C14.7625 5.63767 15.6548 5.60772 16.378 5.21191C16.704 5.03326 16.8556 4.98298 16.9629 4.96907C17.3018 4.92263 17.6447 5.01767 17.9161 5.2333C17.9842 5.28786 18.0708 5.38093 18.2101 5.59488C18.3535 5.81526 18.5185 6.11158 18.764 6.55233C19.0096 6.99307 19.1736 7.29046 19.286 7.52795C19.3964 7.76009 19.4305 7.88419 19.4408 7.97298C19.4856 8.32446 19.3939 8.68001 19.186 8.96144C19.1199 9.05023 19.0023 9.16149 18.6908 9.36474C17.9976 9.81619 17.5272 10.6035 17.5272 11.5C17.5272 12.3965 17.9976 13.1838 18.6908 13.6353C19.0023 13.8385 19.1199 13.9498 19.186 14.0386C19.3943 14.3199 19.4851 14.6751 19.4408 15.027C19.4305 15.1158 19.3954 15.241 19.286 15.472C19.1736 15.7106 19.0096 16.0069 18.764 16.4477C18.5185 16.8884 18.3524 17.1847 18.2101 17.4051C18.0708 17.6191 17.9842 17.7121 17.9161 17.7667C17.6447 17.9823 17.3018 18.0774 16.9629 18.0309C16.8556 18.017 16.705 17.9667 16.378 17.7881C15.6559 17.3923 14.7625 17.3623 14.0136 17.8106C13.2647 18.2599 12.8427 19.0761 12.8118 19.9233C12.7984 20.3053 12.7643 20.4668 12.7231 20.5695C12.6583 20.7319 12.5632 20.8794 12.4434 21.0037C12.3236 21.128 12.1813 21.2265 12.0247 21.2937C11.9453 21.328 11.8246 21.359 11.5759 21.3772C11.3211 21.3953 10.991 21.3953 10.5 21.3953C10.009 21.3953 9.67886 21.3953 9.42405 21.3772C9.17544 21.359 9.05475 21.328 8.97531 21.2937C8.81872 21.2265 8.67644 21.128 8.55661 21.0037C8.43677 20.8794 8.34173 20.7319 8.27693 20.5695C8.23567 20.4668 8.20162 20.3053 8.18821 19.9233C8.15726 19.0761 7.73534 18.2599 6.98641 17.8116C6.23748 17.3623 5.34516 17.3923 4.62201 17.7881C4.29603 17.9667 4.14439 18.017 4.0371 18.0309C3.69816 18.0774 3.3553 17.9823 3.08392 17.7667C3.01583 17.7121 2.92918 17.6191 2.78991 17.4051C2.59588 17.0919 2.41114 16.7726 2.23595 16.4477C1.99043 16.0069 1.82641 15.7095 1.71397 15.472C1.60359 15.2399 1.56955 15.1158 1.55923 15.027C1.51444 14.6755 1.60609 14.32 1.81403 14.0386C1.88005 13.9498 1.99765 13.8385 2.30919 13.6353C3.00242 13.1838 3.47283 12.3965 3.47283 11.5C3.47283 10.6035 3.00242 9.81619 2.30919 9.36474C1.99765 9.16149 1.88005 9.05023 1.81403 8.96144C1.60609 8.68001 1.51444 8.32446 1.55923 7.97298C1.56955 7.88419 1.60462 7.75902 1.71397 7.52795C1.82641 7.2894 1.99043 6.99307 2.23595 6.55233C2.48147 6.11158 2.64756 5.81526 2.78991 5.59488C2.92918 5.38093 3.01583 5.28786 3.08392 5.2333C3.3553 5.01767 3.69816 4.92263 4.0371 4.96907C4.14439 4.98298 4.295 5.03326 4.62201 5.21191C5.34412 5.60772 6.23748 5.63767 6.98641 5.18837C7.73534 4.74014 8.15726 3.92391 8.18821 3.07665C8.20162 2.69474 8.23567 2.53321 8.27693 2.43051C8.40794 2.10209 8.65862 1.84214 8.97531 1.70628Z" fill="white"/>
</g>
</svg>
